<?xml version="1.0" encoding="UTF-8" standalone="no"?>
<!-- Created with Inkscape (http://www.inkscape.org/) -->

<svg
   xmlns:dc="http://purl.org/dc/elements/1.1/"
   xmlns:cc="http://creativecommons.org/ns#"
   xmlns:rdf="http://www.w3.org/1999/02/22-rdf-syntax-ns#"
   xmlns:svg="http://www.w3.org/2000/svg"
   xmlns="http://www.w3.org/2000/svg"
   xmlns:sodipodi="http://sodipodi.sourceforge.net/DTD/sodipodi-0.dtd"
   xmlns:inkscape="http://www.inkscape.org/namespaces/inkscape"
   width="512"
   height="512"
   id="svg2"
   version="1.1"
   inkscape:version="0.48.4 r9939"
   sodipodi:docname="icon.svg">
  <defs
     id="defs4" />
  <sodipodi:namedview
     id="base"
     pagecolor="#ffffff"
     bordercolor="#666666"
     borderopacity="1.0"
     inkscape:pageopacity="0.0"
     inkscape:pageshadow="2"
     inkscape:zoom="1.4142136"
     inkscape:cx="287.41744"
     inkscape:cy="268.05831"
     inkscape:document-units="px"
     inkscape:current-layer="layer5"
     showgrid="false"
     inkscape:window-width="1920"
     inkscape:window-height="1032"
     inkscape:window-x="0"
     inkscape:window-y="22"
     inkscape:window-maximized="0"
     showguides="true"
     inkscape:guide-bbox="true" />
  <metadata
     id="metadata7">
    <rdf:RDF>
      <cc:Work
         rdf:about="">
        <dc:format>image/svg+xml</dc:format>
        <dc:type
           rdf:resource="http://purl.org/dc/dcmitype/StillImage" />
        <dc:title />
      </cc:Work>
    </rdf:RDF>
  </metadata>
  <g
     inkscape:groupmode="layer"
     id="layer2"
     inkscape:label="Star"
     style="display:inline"
     sodipodi:insensitive="true">
    <path
       sodipodi:type="star"
       style="fill:#ee6600;fill-opacity:1;fill-rule:evenodd;stroke:none"
       id="path2996"
       sodipodi:sides="20"
       sodipodi:cx="257.5889"
       sodipodi:cy="266.53293"
       sodipodi:r1="220.77815"
       sodipodi:r2="245.30905"
       sodipodi:arg1="0.62455774"
       sodipodi:arg2="0.78163737"
       inkscape:flatsided="false"
       inkscape:rounded="0"
       inkscape:randomized="0"
       d="m 436.68895,395.63043 -4.98924,43.70862 -43.66986,5.31786 -18.25176,40.02761 -43.17581,-8.43715 -29.72767,32.42842 -38.45541,-21.36627 -38.29362,21.6549 -29.97074,-32.2039 -43.11113,8.76166 -18.55231,-39.8892 -43.708625,-4.98924 -5.317854,-43.66986 -40.027612,-18.25176 8.437149,-43.17581 -32.428418,-29.72767 21.366267,-38.45541 -21.654905,-38.29362 32.203904,-29.97074 -8.761659,-43.11113 39.889199,-18.55231 4.98924,-43.708624 43.669864,-5.317855 18.25175,-40.027611 43.17582,8.437149 29.72766,-32.428418 38.45542,21.366266 38.29362,-21.654904 29.97074,32.203903 43.11113,-8.761658 18.55231,39.889199 43.70862,4.98924 5.31785,43.669863 40.02762,18.25176 -8.43715,43.17581 32.42841,29.72766 -21.36626,38.45542 21.6549,38.29362 -32.2039,29.97074 8.76166,43.11113 z"
       transform="matrix(0.73792881,0.73792881,-0.73792881,0.73792881,262.60006,-130.7646)" />
  </g>
  <g
     inkscape:groupmode="layer"
     id="layer3"
     inkscape:label="Circle"
     style="display:inline"
     sodipodi:insensitive="true">
    <path
       sodipodi:type="arc"
       style="fill:#f4bd27;fill-opacity:1;stroke:#ffffff;stroke-width:28.30779266;stroke-linejoin:miter;stroke-miterlimit:0;stroke-opacity:1;stroke-dasharray:none"
       id="path3786"
       sodipodi:cx="250.31056"
       sodipodi:cy="251.13043"
       sodipodi:rx="156.52174"
       sodipodi:ry="156.52174"
       d="m 406.83231,251.13043 a 156.52174,156.52174 0 1 1 -313.043492,0 156.52174,156.52174 0 1 1 313.043492,0 z"
       transform="matrix(1.0985751,0,0,1.0985751,-18.984951,-19.88564)" />
  </g>
  <g
     inkscape:groupmode="layer"
     id="layer5"
     inkscape:label="b"
     style="display:inline"
     sodipodi:insensitive="true">
    <g
       style="fill:#ffffff;fill-opacity:1;stroke:none;display:inline"
       transform="matrix(1.9591171,0,0,1.9591171,269.36146,483.62942)"
       id="layer1"
       inkscape:label="Layer 1">
      <path
         sodipodi:nodetypes="cccccccccccc"
         inkscape:connector-curvature="0"
         id="path2998"
         d="M -18.216761,-67.826174 -40,-83.0962 l 0,-80.43635 21.917345,6.71437 0,54.08176 -21.28168,18.971028 51.93941,-27.326198 -14.3996745,-6.51321 -9.7448425,-21.13047 48.13783,14.75137 0,23.52461 z"
         style="fill:#ffffff;fill-opacity:1;stroke:none" />
      <g
         id="flowRoot3000"
         style="font-size:40px;font-style:normal;font-weight:normal;line-height:125%;letter-spacing:0px;word-spacing:0px;fill:#ffffff;fill-opacity:1;stroke:none;font-family:Sans"
         transform="matrix(2.0428483,0,0,2.0428483,395.0588,582.03754)" />
    </g>
  </g>
</svg>
